<svg version="1.2" xmlns="http://www.w3.org/2000/svg" viewBox="0 0 180 90" width="180" height="90">
	<title>LogoToquedeBelleza-svg</title>
	<style>
		.s0 { fill: #a2085c } 
	</style>
	<path id="Toque de" fill-rule="evenodd" class="s0" d="m33.1 23q0.3 0 0.5 0.2 0.2 0.2 0.2 0.4 0.1 0.5 0 0.9 0 0.4-0.1 0.8 0 0.2 0 0.3-1.1 4.7-2.7 9.3-0.1 0.5-0.1 1 0.1 0.6-0.2 1.2-0.7 1-1.1 2-2.7 7.7-5.8 15.1-2.5 6.4-5.8 12.5-0.9 1.6-1.9 3.2-0.5 0.6-1.1 1.2-0.6 0.5-1.3 0.3-0.8-0.2-0.7-1 0.1-0.9 0.4-1.8 1.9-5.2 4.2-10.3 4.2-9.5 9.7-18.3 1-1.7 1.6-3.5 1-3 1.9-6 0.8-3 1.5-6 0.1-0.5 0.2-1 0.2-0.5 0.6-0.5zm-17.4 44.7q2.7-4.9 4.9-10.1 2.3-5 4.1-10.3-0.1 0.1-0.2 0.1-0.2 0.4-0.4 0.8-2.5 4.5-4.5 9.2-2.1 4.7-4 9.4 0 0.1 0 0.1-0.1 0.2-0.1 0.4 0 0.2 0.2 0.4zm9-20.4q0 0 0 0 0-0.1 0-0.1 0 0.1 0 0.1zm66.3-25q0 0.1-0.1 0.3-0.1 0.1-0.3 0.1-0.1 0.1-0.2 0-0.8-0.4-1.6-0.6-0.9-0.2-1.7-0.2-0.7-0.1-1.3-0.2-2.2-0.3-4.5-0.6-7.4-0.6-14.9-0.6-7.2-0.1-14.5 0.3-8.1 0.4-16.2 1.2-7.5 0.7-14.9 1.6-0.5 0.1-1 0.1-2.8 0.4-5.7 0.9-2.8 0.4-5.6 1-0.2 0.1-0.5 0.1-1.1 0.3-2.2 0.6-1.1 0.3-2.1 0.9-0.1 0-0.3 0.1-0.2 0-0.4 0-0.2-0.1-0.4-0.3-0.1-0.2 0-0.4 0.1-0.2 0.3-0.3 0.7-0.3 1.4-0.6 1.8-0.6 3.6-1 1.9-0.4 3.7-0.7 5.4-1 10.8-1.6 5.3-0.7 10.8-1.2 7.6-0.8 15.2-1.3 6.6-0.4 13.3-0.5 4.8 0 9.7 0.1 4.9 0.2 9.8 0.6 4.4 0.5 8.8 1.3 0.4 0.1 0.7 0.3 0.3 0.2 0.3 0.6zm-58.2 29.6h-0.1q-1.9-0.1-2.5-0.9-0.6-0.8 0.1-2.2 0.5-1 1.4-1.8 0.2-0.3 0.5-0.4 0.3-0.2 0.7-0.2 0.3 0 0.5 0.1 0.1 0 0.2 0.1 0.3-0.1 0.5-0.2 0 0 0.1 0 0.4-0.2 0.9-0.2 0.2 0 0.4 0 0.8 0.1 1.2 0.7 0.4 0.5 0.3 1.3-0.1 0.4-0.3 0.8-1.5 2.8-3.9 2.9zm2-4.7q-1-0.1-1.8 0.6-0.8 0.6-1.2 1.4-0.4 0.9-0.2 1.4 0.1 0.5 1.1 0.3 1-0.3 1.8-1.2 0.8-0.9 1-1.6 0.2-0.8-0.7-0.9zm8.6-1q0.1 0 0.1 0 0.3 0 0.5 0 0.2 0 0.3 0.3 0.2 0.2 0.1 0.4-0.1 0.2-0.2 0.4 0 0.1-0.1 0.2-0.6 1.1-1.3 2.1-1 1.7-2 3.4-2 3.4-3.9 6.8-0.6 1-1.1 2.1-0.3 0.3-0.1 0.5 0.1 0.1 0.3 0.1 0.3 0 0.6 0 0.1 0 0.2 0 0.7-0.1 1.4-0.2 1.2-0.1 2.5-0.2 0.3 0 0.5 0.2 0.1 0 0.1 0 0 0 0 0.1 0 0 0 0.1 0 0 0 0.1-0.2 0.1-0.4 0.2-3 0.4-6.1 0.8-0.3 0.1-0.7 0.1-0.5-0.1-0.6-0.3-0.2-0.2 0-0.6 2.8-4.9 5.6-9.8 0.3-0.4 0.4-0.6 0.1-0.1 0.1-0.2 0 0-0.1 0.1-0.2 0.1-0.6 0.2-0.5 0.1-1.3 0-1.1-0.2-1.2-1.3 0-0.5 0.1-0.9 0.2-1.1 0.9-1.9 1.4-1.8 3.6-2.4 0-0.1 0.1-0.1 0.5-0.1 1-0.2 0.5 0 1 0.4 0.1 0.1 0.2 0.1 0.1 0 0.1 0zm-0.9 1.2q0 0 0-0.1 0.1-0.1 0.2-0.3 0.1-0.3 0-0.4-0.1-0.1-0.4 0-1.5 0.3-2.8 1.4-1.3 1.1-1.6 2.6-0.1 0.2-0.1 0.4 0 0.2 0.2 0.4 0.2 0.1 0.4 0.1 0.2-0.1 0.3-0.2 2.4-1.5 3.8-3.9zm2.9 5.3q-1.2 0-1.2-1.3 0-1.6 2-5.7 0.1-0.1 0.3-0.1 0.9 0 0.9 0.6 0 0.3-0.2 0.6 0 0.1-1.4 3.5-0.2 0.5-0.2 0.8 0 0.3 0.3 0.3 0.9 0 5-4.8 0.6-0.6 1.1-0.6 0.7 0 0.7 0.5 0 0.2-0.4 1.6-0.7 1.9-0.7 2.2 0 0.4 0.3 0.4 0.7 0 3.8-2.3 0.6-0.9 1.5-1.5 1.4-0.9 2.9-0.9 0.4 0 0.7 0.1 0.6 0.2 0.8 0.7 0.1 0.4-0.2 1-0.9 1.3-2.3 1.4-1 0.1-1.9-0.1-0.2 0-0.3 0.1-0.1 0.2-0.1 0.3-0.3 1.2 0.7 1.5 1.1 0.4 2.4 0 1.5-0.5 2.8-1.8 1.4-1.2 1.6-1.1 0.2 0 0.1 0.4-0.2 0.7-1 1.4-0.7 0.8-1.7 1.3-1.1 0.6-1.7 0.7-0.7 0.2-1.5 0.2-1.1 0.1-2.1-0.3-1.3-0.5-1.2-1.8-0.9 0.7-1.6 1.2-1.2 0.7-2.1 0.7h-0.2q-1.4-0.2-1.4-2.1-1.4 1.3-2.4 2.1-1 0.8-2.1 0.8zm12.4-4.9q-0.1 0.1-0.1 0.2 0 0.1 0.1 0.2 0.5 0.3 1 0.2 0.5-0.1 0.9-0.4 0.4-0.3 0.3-0.8 0-0.2-0.1-0.2-0.2-0.1-0.3-0.1-1 0.2-1.8 0.9zm24.9 3.3q-0.6 0.3-1.4 0.3-1.8 0.1-1.6-1.7 0-0.3 0.2-0.7 0-0.2 0-0.3 0.2-0.7 0.1-0.7 0-0.1-0.4 0.3-0.1 0.1-0.1 0.2-0.6 0.6-1.1 1.2-1 1.2-2.3 2-0.8 0.4-1.7 0.5-1.4 0-1.6-1.3-0.1-0.6 0.1-1.1 0.5-2.3 2.3-3.4 1.7-1.2 4-0.9 0.6 0.2 0.9-0.3 0.1-0.2 0.2-0.4 0.6-1.1 1.2-2.1 1.1-2 2.2-4 0.9-1.6 1.8-3.3 0.3-0.5 0.6-0.9 0.1-0.3 0.3-0.3 0.3 0 0.5 0 0.1 0 0.1 0 0.3 0 0.4 0.1 0.2 0.1 0.1 0.3-0.2 0.6-0.4 1.1-1.2 2.4-2.3 4.9-1.1 2.5-2.1 5-0.3 0.9-0.7 1.8-0.4 1-0.7 2-0.1 0.3-0.1 0.5 0 0.2 0.2 0.4 0.2 0.1 0.3 0 0.2 0 0.4-0.1 0 0 0-0.1 1.2-0.7 2.2-1.6 0.5-1 1.5-1.6 1.4-0.9 3-0.9 0.4 0 0.7 0.1 0.6 0.2 0.7 0.7 0.2 0.4-0.2 1-0.8 1.3-2.3 1.4-0.9 0.1-1.8-0.1-0.2 0-0.3 0.1-0.2 0.2-0.2 0.3-0.2 1.2 0.7 1.5c0.2 0.1 0.7 0.1 1.4 0.1q-0.1 0.1-0.2 0.1 0.4 0 0.7-0.1c1 0.1 2.1 0.1 2.3 0.1q-1 0.6-1.7 0.7-0.7 0.2-1.4 0.2-1.2 0.1-2.1-0.3-1.1-0.4-1.2-1.5-0.6 0.5-1.2 0.8zm-3.9-3.9q0.1-0.2 0-0.4 0-0.3-0.3-0.4-0.4-0.2-1 0-1.4 0.4-2.3 1.5-0.9 1.2-1 2.6 0.1 0 0.1 0 0 0.2 0 0.3 0.1 0.6 0.7 0.2 0.7-0.4 1.5-1.2 0.9-0.9 1.5-1.7 0.7-0.8 0.8-0.9zm13.3 2.7c-0.3 0.3-1.6 0.6-2.8 0.8q1.1-0.5 2.1-1.5 1.3-1.2 1.5-1.1 0.2 0 0.1 0.4-0.1 0.7-0.9 1.4zm-4.1 1.2q-0.2 0-0.5 0c0.4-0.1 1.1-0.2 1.8-0.4q-0.3 0.2-0.7 0.3-0.3 0.1-0.6 0.1zm-1.5-3.3q-0.1 0.1-0.1 0.2-0.1 0.1 0.1 0.2 0.4 0.3 1 0.2 0.5-0.1 0.9-0.4 0.4-0.3 0.3-0.8 0-0.2-0.2-0.2-0.1-0.1-0.3-0.1-1 0.2-1.7 0.9z"/>
	<path id="Belleza" fill-rule="evenodd" class="s0" d="m177.3 63.8q0.1 0 0.1 0.1 0 0.1 0 0.1 0 0.1-0.1 0.2 0 0-0.1 0.1-0.2 0.1-0.5 0-0.3 0-0.5 0-0.1 0-0.2 0-1.2-0.1-2.4-0.3-2.9-0.3-5.7-0.5-5.4-0.5-10.9-0.9-7.7-0.5-15.4-0.8-5.5-0.2-11-0.3-0.6-0.1-1.2-0.1-0.6 0-1.2 0-3.8-0.1-7.5-0.1h-0.1q-2.2 0-4.4 0.1-0.8 0-1.6 0-0.9 0.1-2 0.4-7.6 2.7-15.3 3.9-2.3 0.4-4.5 0.7-2.2 0.2-4.5 0.2-0.7 0-1.4 0-1.1 0-2.1-0.3-0.4-0.1-0.8-0.3-0.3-0.1-0.5-0.3-0.3-0.2-0.2-0.6 0-0.4 0.3-0.6 0.3-0.3 0.6-0.5 1-0.5 2.1-0.7 0.6-0.2 1.2-0.3 1.8-0.4 3.8-0.7 7.6-1.2 15.2-1.5 0.5-0.1 0.9-0.1 2.4-0.1 4.7-0.2 0.9 0 1.7-0.3 2.9-1.1 5.7-2.4 2.8-1.3 5.5-3 2.3-1.4 4.1-3.2 1.1-1.1 1.8-2.3 0.9-1.9-0.3-3.3-0.9-0.8-2.1-1.3-1.6-0.8-3.3-1.2-1.7-0.4-3.4-0.8-4.9-0.8-10.1-0.9-0.1 0-0.3 0-0.2 0-0.4 0-0.5 0-0.7 0.5-0.1 0.2-0.2 0.4-0.2 0.4-0.5 0.8-1.8 3.7-3.6 7.4-1.5 3.1-3 6.1-0.1 0.2-0.1 0.2-0.2 0.4-0.4 0.8-0.3 0.3-0.6 0.2-0.2 0-0.4 0-0.4-0.2-0.3-0.6 0.3-0.8 0.7-1.6 2.3-4.8 4.6-9.7 0.8-1.5 1.5-3.1 0-0.1 0.1-0.2 0.2-0.4 0.3-0.7 0.2-0.5-0.3-0.6-0.3 0-0.5 0-0.4 0-0.7-0.1 0 0-0.1 0-0.4 0-0.8-0.1-0.3-0.1-0.4-0.5 0-0.5 0.3-0.8 0.4-0.2 0.8-0.3 0.1-0.1 0.3-0.1 1-0.5 2.2-0.8 0.1-0.1 0.2-0.1 0.9-0.3 1.4-1.1 1.9-3.7 3.8-7.4 0.7-1.2 1.4-2.5 0.1-0.2 0.2-0.4 0.1-0.4 0.4-0.7 0.3-0.4 0.7-0.4 0.2 0 0.4 0.1 0.5 0.2 0.3 0.6 0 0.1 0 0.1-0.4 1-0.8 1.9-1.2 2.2-2.3 4.5-0.4 0.7-0.8 1.5-0.2 0.3-0.4 0.7-0.4 0.7-0.7 1.3-0.1 0.2-0.1 0.3 0 0.1 0.1 0.1 0.1 0.1 0.2 0.1 0.2-0.1 0.4-0.1 0.1 0 0.1-0.1 6.4-2 12.7-4.1 6.4-2.2 12.6-4.6 0.2-0.1 0.3-0.1 1.9-0.8 3.8-1.6 1.9-0.8 3.8-1.7 1.3-0.7 2.6-1.6 2.6-2.1 0.2-3.8-1.1-0.8-2.5-1.2-1.3-0.4-2.7-0.5-3.3-0.5-6.7-0.5-3.3 0-6.6 0.3-7.4 0.6-14.8 2.5-6.8 1.6-13.3 4.5-1.7 0.8-3.3 1.8-0.5 0.3-0.9 0.5-0.3 0.1-0.5 0-0.4 0.1-0.6-0.1-0.1-0.2 0-0.4 0.2-0.2 0.4-0.3 1.4-1 2.9-1.7 6.2-2.9 12.6-4.6 9.3-2.6 18.7-3.2 2.9-0.2 5.7-0.2 3.2 0 6.2 0.3 2.9 0.3 5.5 1.3 1.3 0.5 2.2 1.4 0.7 0.8 0.6 1.8-0.1 1-0.9 2-1.1 1.1-2.5 1.8-1.6 0.9-3.4 1.7-1.7 0.7-3.4 1.4-0.1 0.1-0.2 0.1-6 2.5-12.2 4.6-6.1 2.1-12.4 4.1-1 0.4-2 0.7-1.5 0.5-2.9 1-0.7 0.1-1.1 0.7-0.3 0.5-0.2 0.8 0 0.3 0.6 0.3 1.7 0.1 3.3 0.2 0.1 0 0.2 0 3.2 0.2 6.2 0.6 3.1 0.5 6 1.4 1.2 0.4 2.4 0.9 0.7 0.4 1.4 0.9 3 2.3 0.5 5.8-0.9 1.2-2 2.1-2.7 2.4-5.8 4.1-2.6 1.4-5.4 2.7-0.3 0.1-0.7 0.3-0.1 0.1-0.3 0.1 0.1 0.3 0.3 0.4 0.1 0 0.3 0 0.5 0 1 0 0.3 0 0.7 0 1.4 0 2.9 0 8.6 0 17.1 0.4 9.3 0.3 18.5 1.1 2.9 0.3 5.8 0.5 3.6 0.3 7.1 0.6 2 0.2 4.1 0.5 0.5 0.1 1 0.1 0.4 0.1 0.7 0.3zm-68.1-23.2q0 0 0.1-0.1 0-0.1 0.1-0.2 0 0-0.1-0.1 0 0-0.1 0 0 0 0-0.1-0.3 0.1-0.6 0.3 0 0.1 0 0.2 0 0.1 0.1 0.1 0.2 0 0.5-0.1zm-1.5 21.6q0.1 0 0.1 0 0.1 0 0.2-0.1 0.2-0.1 0.2-0.2 0-0.1-0.1-0.2 0 0-0.1 0-7 0.4-14 1.2-3.5 0.4-7 1.3 0 0.1-0.1 0.1-0.6 0.1-1.1 0.5-0.1 0.1-0.2 0.2 0 0.1 0.1 0.2 0.3 0.1 0.7 0.2 1.1 0.2 2.2 0.2 1 0 2-0.1 8.6-0.7 17.1-3.3zm35.4-12.3q-0.8 0.8-1.8 1.3-1 0.6-1.7 0.7-0.7 0.2-1.4 0.2-1.2 0.1-2.1-0.3-1.6-0.6-1.1-2.5 0.4-1.5 1.8-2.4 1.4-0.9 2.9-0.9 0 0 0.1 0 0.3 0 0.7 0.1 0.6 0.2 0.7 0.7 0.2 0.4-0.2 1-0.8 1.3-2.3 1.4-0.9 0.1-1.8-0.1-0.2 0-0.3 0.1-0.2 0.2-0.2 0.3-0.3 1.2 0.7 1.5 1.2 0.4 2.5 0 1.4-0.5 2.8-1.8 0.8-0.7 1.1-1-0.2 0.9-0.3 1.6 0 0-0.1 0.1zm0.4-1.7q0.6-1.9 1.9-4.9 2.4-5.6 3.8-9.1 0.2-0.3 0.4-0.6 0.3-0.3 0.8-0.1 0.1 0.1 0.2 0.2 0.2 0.1 0.1 0.5-6.2 14.8-6 16.1 0.2 1.3 1.7 0.6 1.4-0.6 3-2.9v-0.2q0.6-2 1.9-5.1 2.4-5.5 3.9-9 0.1-0.4 0.3-0.6 0.3-0.3 0.8-0.1 0.1 0 0.3 0.2 0.1 0.1 0 0.5-5.9 13.8-6 16.3-0.2 2.6 0.3 3.5 0.4 1-0.7 0.3-1.2-0.7-1.2-3.1 0-0.2 0-0.3-0.5 0.4-1 0.7-1.4 1-2.9 1.2-1.6 0.2-1.9-1.7 0-0.3 0-0.8 0.7-0.7 0.8-1.3 0.1-0.4-0.1-0.4-0.1 0-0.4 0.1zm-6-0.4q-0.1 0.1-0.1 0.2-0.1 0.1 0 0.2 0.5 0.3 1 0.2 0.6-0.1 1-0.4 0.3-0.3 0.3-0.8-0.1-0.2-0.2-0.2-0.1-0.1-0.3-0.1-1 0.2-1.7 0.9zm23.4 1.5q1.3-0.9 2.6-1.8 0.8-0.6 1.4-1.3 0.1-0.2 0-0.4-0.1-0.2-0.3-0.2-0.9-0.1-1.8 0.1-0.6 0.2-1.3 0.3-0.3 0.1-0.5-0.1-0.1-0.2 0-0.4 0.1-0.1 0.3-0.2 1.9-0.8 4-0.6 0.5 0.1 0.9 0.3 0.8 0.4 0.4 1.2-0.5 0.9-1.3 1.5-1.2 0.9-2.4 1.7-0.2 0.2-0.5 0.3-0.5 0.4-0.5 0.5 0 0.2 0.4 0.2 0.3 0 0.7 0 0.1 0 0.2 0 1.2 0 2.4 0.3-0.1 0.3 0.1 0.6 0.1 0.2 0.2 0.3-0.1 0-0.2 0-2.5-0.3-4.9-0.3-0.5 0-0.9 0-0.2 0-0.4 0-0.3 0.1-0.6 0-0.2-0.1-0.3-0.2 1-0.5 1.7-1.2 0.4-0.3 0.6-0.6zm4.7 1.4q0.3 0.2 0.6 0.4 0.1 0 0.1 0 0 0 0 0.1 0.1 0.1 0 0.2 0 0 0 0.1-0.1 0-0.2 0-0.1 0-0.2 0.1 0.4 0.2 1 0.3 1.3 0 2.3-0.6 0.4-0.2 1.7-1.3 0.1 2.4 3.2 1.3 0.4-0.2 0.7-0.4 0 0 0.1 0 0.5-0.4 0.9-0.8 0.5-0.5 0.9-1 0.2-0.6-0.1-0.8-0.3-0.2-0.7 0.3-0.5 0.5-1.2 1.1-0.6 0.6-1.3 0.9-0.6 0.2-0.9 0-0.3-0.3 0-1.5 0.1-0.3 0.2-0.6 0.1-0.8-0.8-0.8-0.6 0.1-1 0.5-0.9 0.9-1.9 1.7-0.2 0.2-0.5 0.4-0.3 0.2-0.5 0.3-0.3 0.1-0.6 0-0.1 0 0-0.1 0-0.2 0-0.2 1-2.2 3-3.4 0.5-0.2 0.9-0.3 0.4-0.1 0.7 0.4 0.1 0.1 0.1 0.1 0.1 0 0.1 0 0.4 0.1 0.7-0.1 0.2-0.3 0.1-0.5-0.2-1-1.1-1.1-0.9-0.1-1.7 0.4-1.5 0.7-2.8 1.8-1 1.1-1.6 2.4-0.2 0.4-0.2 0.7 0 0 0 0zm-7.1 0.5q-1 0.6-1.7 0.7-0.7 0.2-1.4 0.2-1.1 0.1-2.1-0.3-1.6-0.6-1.1-2.5 0.4-1.5 1.8-2.4 1.5-0.9 3-0.9 0.4 0 0.7 0.1 0.6 0.2 0.7 0.7 0.2 0.4-0.2 1-0.8 1.3-2.3 1.4-0.9 0.1-1.8-0.1-0.2 0-0.3 0.1-0.2 0.2-0.2 0.3-0.2 1.2 0.7 1.5 1.2 0.4 2.5 0 1.5-0.5 2.8-1.8 1.3-1.2 1.5-1.1 0.2 0 0.2 0.4-0.1 0.4-0.4 0.8-0.7 0.4-1.4 0.8-0.1 0.1-0.3 0.1-0.3 0.1-0.5 0.2-0.2 0.2-0.2 0.5 0 0.1 0.1 0.2 0 0.1-0.1 0.1zm-3.8-3.4q-0.1 0.1-0.1 0.2-0.1 0.1 0.1 0.2 0.4 0.3 1 0.2 0.5-0.1 0.9-0.4 0.4-0.3 0.3-0.8 0-0.2-0.2-0.2-0.1-0.1-0.3-0.1-0.9 0.2-1.7 0.9z"/>
</svg>